<?xml version="1.0" standalone="no"?><!DOCTYPE svg PUBLIC "-//W3C//DTD SVG 1.1//EN" "http://www.w3.org/Graphics/SVG/1.1/DTD/svg11.dtd"><svg t="1773323484650" class="icon" viewBox="0 0 1024 1024" version="1.1" xmlns="http://www.w3.org/2000/svg" p-id="2247" xmlns:xlink="http://www.w3.org/1999/xlink" width="200" height="200"><path d="M442.410667 160.576c20.48 34.922667 21.696 62.293333 13.973333 121.173333-6.186667 47.317333-5.696 67.328 5.909333 91.349334 7.786667 16.064 18.517333 24.618667 32.832 28.629333a516.352 516.352 0 0 1-8.32-90.901333c0-123.925333 101.184-224.298667 225.92-224.298667C837.461333 86.528 938.666667 186.901333 938.666667 310.826667c0 57.429333-29.162667 103.36-75.882667 130.304-33.578667 19.370667-59.690667 20.693333-115.925333 13.930666-49.728-5.973333-70.613333-4.629333-96.490667 10.88-17.450667 10.496-26.56 19.946667-30.912 32.704a528.725333 528.725333 0 0 1 93.269333-8.576C837.461333 490.069333 938.666667 590.442667 938.666667 714.368 938.666667 838.293333 837.461333 938.666667 712.746667 938.666667c-57.749333 0-104-28.885333-131.157334-75.242667-15.04-25.664-20.266667-55.082667-19.2-91.648 0.405333-12.949333 1.344-24.277333 3.456-44.672 4.906667-47.232 4.586667-63.296-2.389333-73.216-9.962667-14.144-20.672-22.784-33.984-28.074667a511.573333 511.573333 0 0 1 7.744 87.36c0 123.925333-101.205333 224.298667-225.941333 224.298667C186.538667 937.472 85.333333 837.098667 85.333333 713.173333c0-57.429333 29.162667-103.36 75.882667-130.304 25.813333-14.890667 55.402667-20.053333 92.16-18.986666 13.034667 0.384 24.448 1.322667 45.013333 3.413333 47.722667 4.906667 64 4.565333 74.069334-2.410667 16.554667-11.477333 25.344-23.061333 30.336-39.232a526.912 526.912 0 0 1-91.52 8.277334C186.538667 533.930667 85.333333 433.557333 85.333333 309.632 85.333333 185.706667 186.538667 85.333333 311.253333 85.333333c57.749333 0 104 28.885333 131.157334 75.242667zM128 309.632c0 100.266667 82.005333 181.632 183.253333 181.632 37.44 0 76.501333-4.885333 113.152-13.653333a21.333333 21.333333 0 0 1 26.197334 22.869333c-4.437333 44.714667-16.085333 73.301333-53.845334 99.456-22.506667 15.594667-42.24 16-102.72 9.813333-19.562667-2.005333-30.208-2.88-41.898666-3.2-29.589333-0.874667-51.776 2.986667-69.610667 13.290667C148.48 639.466667 128 671.722667 128 713.173333c0 100.266667 82.005333 181.632 183.253333 181.632 101.269333 0 183.296-81.365333 183.296-181.632 0-36.48-4.757333-74.538667-13.312-110.4a21.333333 21.333333 0 0 1 23.061334-26.176c39.893333 4.373333 69.333333 17.642667 94.058666 52.736 15.786667 22.421333 16.170667 42.090667 9.941334 102.186667-2.026667 19.413333-2.901333 29.930667-3.242667 41.536-0.853333 29.248 3.029333 51.2 13.354667 68.8 19.776 33.770667 52.373333 54.144 94.314666 54.144C813.994667 896 896 814.634667 896 714.368c0-100.266667-82.005333-181.632-183.253333-181.632-37.418667 0-76.48 4.864-113.152 13.632a21.333333 21.333333 0 0 1-26.304-20.757333c0-42.837333 13.312-71.146667 55.104-96.234667 36.48-21.888 64.981333-23.722667 123.562666-16.661333 47.466667 5.717333 66.474667 4.736 89.514667-8.533334C875.52 384.533333 896 352.256 896 310.826667c0-100.266667-82.005333-181.632-183.253333-181.632-101.269333 0-183.296 81.365333-183.296 181.632 0 36.48 4.757333 74.538667 13.312 110.4a21.333333 21.333333 0 0 1-20.736 26.304c-16.426667 0-28.8-1.322667-43.904-6.72-23.253333-8.298667-42.218667-24.277333-54.229334-49.130667-16.405333-33.898667-17.045333-60.245333-9.813333-115.477333 6.549333-49.898667 5.632-69.973333-8.490667-94.08C385.813333 148.394667 353.216 128 311.274667 128 210.005333 128 128 209.365333 128 309.632z" p-id="2248"></path></svg>