<?xml version="1.0" standalone="no"?><!DOCTYPE svg PUBLIC "-//W3C//DTD SVG 1.1//EN" "http://www.w3.org/Graphics/SVG/1.1/DTD/svg11.dtd"><svg t="1773323740617" class="icon" viewBox="0 0 1024 1024" version="1.1" xmlns="http://www.w3.org/2000/svg" p-id="6283" xmlns:xlink="http://www.w3.org/1999/xlink" width="200" height="200"><path d="M483.555556 227.555556C648.533333 227.555556 782.222222 361.244444 782.222222 526.222222c0 56.888889-34.133333 147.911111-91.022222 210.488889-17.066667 19.911111-39.822222 68.266667-56.888889 116.622222 0 2.844444-290.133333-2.844444-292.977778-5.688889-17.066667-42.666667-39.822222-82.488889-68.266666-110.933333-56.888889-62.577778-91.022222-145.066667-91.022223-210.488889C184.888889 361.244444 318.577778 227.555556 483.555556 227.555556z m93.866666 796.444444h-156.444444c-5.688889 0-11.377778-2.844444-14.222222-11.377778L384 967.111111h227.555556l-22.755556 45.511111c-2.844444 8.533333-5.688889 11.377778-11.377778 11.377778zM543.288889 2.844444c17.066667 2.844444 28.444444 14.222222 28.444444 31.288889l-11.377777 125.155556c0 14.222222-14.222222 28.444444-31.288889 25.6-14.222222 0-28.444444-14.222222-25.6-31.288889l11.377777-125.155556c-2.844444-17.066667 11.377778-28.444444 28.444445-25.6zM150.755556 133.688889c11.377778-11.377778 31.288889-8.533333 39.822222 2.844444L270.222222 230.4c11.377778 11.377778 8.533333 31.288889-2.844444 39.822222-11.377778 11.377778-31.288889 8.533333-39.822222-2.844444L147.911111 173.511111C136.533333 162.133333 139.377778 142.222222 150.755556 133.688889z m731.022222 59.733333c11.377778 11.377778 8.533333 31.288889-2.844445 39.822222L785.066667 312.888889c-11.377778 11.377778-31.288889 8.533333-39.822223-2.844445-11.377778-11.377778-8.533333-31.288889 2.844445-39.822222l93.866667-79.644444c11.377778-11.377778 31.288889-8.533333 39.822222 2.844444zM375.466667 881.777778h244.622222c8.533333 0 14.222222 5.688889 14.222222 14.222222v5.688889l-8.533333 25.6c-2.844444 5.688889-8.533333 11.377778-14.222222 11.377778H384c-5.688889 0-11.377778-2.844444-14.222222-11.377778l-8.533334-25.6c-2.844444-8.533333 2.844444-17.066667 8.533334-19.911111h5.688889z" fill="#FFE564" p-id="6284"></path><path d="M483.555556 540.444444H401.066667c-11.377778 0-19.911111-11.377778-17.066667-22.755555l59.733333-139.377778c2.844444-5.688889 8.533333-11.377778 17.066667-11.377778h105.244444c14.222222 0 22.755556 14.222222 17.066667 22.755556l-79.644444 139.377778c-5.688889 8.533333-11.377778 11.377778-19.911111 11.377777" fill="#FFFEF9" p-id="6285"></path><path d="M446.577778 705.422222l159.288889-162.133333c11.377778-11.377778 2.844444-31.288889-14.222223-31.288889h-105.244444c-8.533333 0-17.066667 5.688889-19.911111 14.222222L412.444444 688.355556c-5.688889 17.066667 19.911111 31.288889 34.133334 17.066666" fill="#FFFEF9" p-id="6286"></path></svg>